<?xml version="1.0" encoding="us-ascii" standalone="no"?><svg xmlns="http://www.w3.org/2000/svg" xmlns:xlink="http://www.w3.org/1999/xlink" contentStyleType="text/css" height="77px" preserveAspectRatio="none" style="width:180px;height:77px;background:#FFFFFF;" version="1.1" viewBox="0 0 180 77" width="180px" zoomAndPan="magnify"><defs/><g><!--class Main--><g id="elem_Main"><rect codeLine="4" fill="#FEECCD" height="56.4883" id="Main" rx="5" ry="5" style="stroke:#7A003C;stroke-width:1.0;" width="159" x="7" y="7"/><ellipse cx="65.75" cy="23" fill="#ADD1B2" rx="11" ry="11" style="stroke:#181818;stroke-width:1.0;"/><path d="M68.2231,29.1431 Q67.6421,29.4419 67.0029,29.5913 Q66.3638,29.7407 65.6582,29.7407 Q63.1514,29.7407 61.8315,28.0889 Q60.5117,26.437 60.5117,23.3159 Q60.5117,20.1865 61.8315,18.5347 Q63.1514,16.8828 65.6582,16.8828 Q66.3638,16.8828 67.0112,17.0322 Q67.6587,17.1816 68.2231,17.4805 L68.2231,20.2031 Q67.5923,19.6221 66.9988,19.3523 Q66.4053,19.0825 65.7744,19.0825 Q64.4297,19.0825 63.7449,20.1492 Q63.0601,21.2158 63.0601,23.3159 Q63.0601,25.4077 63.7449,26.4744 Q64.4297,27.541 65.7744,27.541 Q66.4053,27.541 66.9988,27.2712 Q67.5923,27.0015 68.2231,26.4204 Z " fill="#000000"/><text fill="#000000" font-family="sans-serif" font-size="14" lengthAdjust="spacing" textLength="33" x="86.25" y="28.291">Main</text><line style="stroke:#7A003C;stroke-width:1.0;" x1="8" x2="165" y1="39" y2="39"/><ellipse cx="18" cy="52.7441" fill="#84BE84" rx="3" ry="3" style="stroke:#038048;stroke-width:1.0;"/><text fill="#000000" font-family="sans-serif" font-size="14" lengthAdjust="spacing" text-decoration="underline" textLength="133" x="27" y="56.5352">main(args: String[])</text></g><!--SRC=[KypCIyufJKbLqDClACtDqIikgSn9vU9ApaaiBbRmJSpCKwZcKW02RONgufB4aipaMeLSeAX6Ob5wiPL2S4bHPbvwTAmcLoqN0000]--></g></svg>