<?xml version="1.0" encoding="us-ascii" standalone="no"?><svg xmlns="http://www.w3.org/2000/svg" xmlns:xlink="http://www.w3.org/1999/xlink" contentStyleType="text/css" height="397px" preserveAspectRatio="none" style="width:347px;height:397px;background:#FFFFFF;" version="1.1" viewBox="0 0 347 397" width="347px" zoomAndPan="magnify"><defs/><g><!--class Main--><g id="elem_Main"><rect codeLine="2" fill="#FEECCD" height="72.9766" id="Main" rx="5" ry="5" style="stroke:#7A003C;stroke-width:1.0;" width="295" x="26" y="150.09"/><ellipse cx="152.75" cy="166.09" fill="#ADD1B2" rx="11" ry="11" style="stroke:#181818;stroke-width:1.0;"/><path d="M155.2231,172.2331 Q154.6421,172.5319 154.0029,172.6813 Q153.3638,172.8307 152.6582,172.8307 Q150.1514,172.8307 148.8315,171.1789 Q147.5117,169.527 147.5117,166.4059 Q147.5117,163.2765 148.8315,161.6247 Q150.1514,159.9728 152.6582,159.9728 Q153.3638,159.9728 154.0112,160.1222 Q154.6587,160.2716 155.2231,160.5705 L155.2231,163.2931 Q154.5923,162.7121 153.9988,162.4423 Q153.4053,162.1725 152.7744,162.1725 Q151.4297,162.1725 150.7449,163.2392 Q150.0601,164.3058 150.0601,166.4059 Q150.0601,168.4977 150.7449,169.5644 Q151.4297,170.631 152.7744,170.631 Q153.4053,170.631 153.9988,170.3612 Q154.5923,170.0915 155.2231,169.5104 Z " fill="#000000"/><text fill="#000000" font-family="sans-serif" font-size="14" lengthAdjust="spacing" textLength="33" x="173.25" y="171.381">Main</text><line style="stroke:#7A003C;stroke-width:1.0;" x1="27" x2="320" y1="182.09" y2="182.09"/><ellipse cx="37" cy="195.8341" fill="#84BE84" rx="3" ry="3" style="stroke:#038048;stroke-width:1.0;"/><text fill="#000000" font-family="sans-serif" font-size="14" lengthAdjust="spacing" text-decoration="underline" textLength="133" x="46" y="199.6252">main(args: String[])</text><ellipse cx="37" cy="212.3224" fill="#84BE84" rx="3" ry="3" style="stroke:#038048;stroke-width:1.0;"/><text fill="#000000" font-family="sans-serif" font-size="14" lengthAdjust="spacing" text-decoration="underline" textLength="269" x="46" y="216.1134">configure(args: String[]): Configuration</text></g><!--class Configuration--><g id="elem_Configuration"><rect codeLine="7" fill="#FEECCD" height="98.0859" id="Configuration" rx="5" ry="5" style="stroke:#7A003C;stroke-width:1.0;" width="160" x="93.5" y="7"/><ellipse cx="122.9" cy="27.3105" fill="#ADD1B2" rx="11" ry="11" style="stroke:#181818;stroke-width:1.0;"/><path d="M125.3731,33.4536 Q124.7921,33.7524 124.1529,33.9019 Q123.5138,34.0513 122.8082,34.0513 Q120.3014,34.0513 118.9815,32.3994 Q117.6617,30.7476 117.6617,27.6265 Q117.6617,24.4971 118.9815,22.8452 Q120.3014,21.1934 122.8082,21.1934 Q123.5138,21.1934 124.1612,21.3428 Q124.8087,21.4922 125.3731,21.791 L125.3731,24.5137 Q124.7423,23.9326 124.1488,23.6628 Q123.5553,23.3931 122.9244,23.3931 Q121.5797,23.3931 120.8949,24.4597 Q120.2101,25.5264 120.2101,27.6265 Q120.2101,29.7183 120.8949,30.7849 Q121.5797,31.8516 122.9244,31.8516 Q123.5553,31.8516 124.1488,31.5818 Q124.7423,31.312 125.3731,30.731 Z " fill="#000000"/><text fill="#000000" font-family="sans-serif" font-size="12" font-style="italic" lengthAdjust="spacing" textLength="73" x="151.6" y="23.6016">&#171;immutable&#187;</text><text fill="#000000" font-family="sans-serif" font-size="14" lengthAdjust="spacing" textLength="96" x="140.1" y="39.668">Configuration</text><line style="stroke:#7A003C;stroke-width:1.0;" x1="94.5" x2="252.5" y1="47.6211" y2="47.6211"/><ellipse cx="104.5" cy="61.3652" fill="none" rx="3" ry="3" style="stroke:#038048;stroke-width:1.0;"/><text fill="#000000" font-family="sans-serif" font-size="14" lengthAdjust="spacing" textLength="134" x="113.5" y="65.1563">p1Strength: Integer</text><ellipse cx="104.5" cy="77.8535" fill="none" rx="3" ry="3" style="stroke:#038048;stroke-width:1.0;"/><text fill="#000000" font-family="sans-serif" font-size="14" lengthAdjust="spacing" textLength="129" x="113.5" y="81.6445">p2Strengh: Integer</text><ellipse cx="104.5" cy="94.3418" fill="none" rx="3" ry="3" style="stroke:#038048;stroke-width:1.0;"/><text fill="#000000" font-family="sans-serif" font-size="14" lengthAdjust="spacing" textLength="134" x="113.5" y="98.1328">scoreSystem: String</text></g><!--class Match--><g id="elem_Match"><rect codeLine="16" fill="#FEECCD" height="121.9531" id="Match" rx="5" ry="5" style="stroke:#7A003C;stroke-width:1.0;" width="333" x="7" y="268.07"/><ellipse cx="148.75" cy="284.07" fill="#ADD1B2" rx="11" ry="11" style="stroke:#181818;stroke-width:1.0;"/><path d="M151.2231,290.2131 Q150.6421,290.5119 150.0029,290.6613 Q149.3638,290.8107 148.6582,290.8107 Q146.1514,290.8107 144.8315,289.1589 Q143.5117,287.507 143.5117,284.3859 Q143.5117,281.2565 144.8315,279.6047 Q146.1514,277.9528 148.6582,277.9528 Q149.3638,277.9528 150.0112,278.1022 Q150.6587,278.2516 151.2231,278.5505 L151.2231,281.2731 Q150.5923,280.6921 149.9988,280.4223 Q149.4053,280.1525 148.7744,280.1525 Q147.4297,280.1525 146.7449,281.2192 Q146.0601,282.2858 146.0601,284.3859 Q146.0601,286.4777 146.7449,287.5444 Q147.4297,288.611 148.7744,288.611 Q149.4053,288.611 149.9988,288.3412 Q150.5923,288.0715 151.2231,287.4904 Z " fill="#000000"/><text fill="#000000" font-family="sans-serif" font-size="14" lengthAdjust="spacing" textLength="41" x="169.25" y="289.361">Match</text><line style="stroke:#7A003C;stroke-width:1.0;" x1="8" x2="339" y1="300.07" y2="300.07"/><ellipse cx="18" cy="313.8141" fill="none" rx="3" ry="3" style="stroke:#038048;stroke-width:1.0;"/><text fill="#000000" font-family="sans-serif" font-size="14" lengthAdjust="spacing" text-decoration="underline" textLength="111" x="27" y="317.6052">P1_NAME = "p1"</text><ellipse cx="18" cy="330.3024" fill="none" rx="3" ry="3" style="stroke:#038048;stroke-width:1.0;"/><text fill="#000000" font-family="sans-serif" font-size="14" lengthAdjust="spacing" text-decoration="underline" textLength="111" x="27" y="334.0934">P2_NAME = "p2"</text><line style="stroke:#7A003C;stroke-width:1.0;" x1="8" x2="339" y1="341.0466" y2="341.0466"/><ellipse cx="18" cy="354.7907" fill="#84BE84" rx="3" ry="3" style="stroke:#038048;stroke-width:1.0;"/><text fill="#000000" font-family="sans-serif" font-size="14" lengthAdjust="spacing" textLength="307" x="27" y="358.5817">this(strengthP1: Integer, strengthP2: Integer)</text><line style="stroke:#7A003C;stroke-width:1.0;" x1="8" x2="339" y1="365.5348" y2="365.5348"/><ellipse cx="18" cy="379.279" fill="#84BE84" rx="3" ry="3" style="stroke:#038048;stroke-width:1.0;"/><text fill="#000000" font-family="sans-serif" font-size="14" lengthAdjust="spacing" textLength="87" x="27" y="383.07">play(): Player</text></g><!--link Configuration to Main--><g id="link_Configuration_Main"><path codeLine="13" d="M173.5,111.27 C173.5,126.09 173.5,120.12 173.5,133.94 " fill="none" id="Configuration-Main" style="stroke:#7A003C;stroke-width:1.0;"/><polygon fill="#7A003C" points="173.5,105.27,169.5,114.27,173.5,110.27,177.5,114.27,173.5,105.27" style="stroke:#7A003C;stroke-width:1.0;"/><ellipse cx="173.5" cy="141.94" fill="#FFFFFF" rx="8" ry="8" style="stroke:#7A003C;stroke-width:1.0;"/><line style="stroke:#7A003C;stroke-width:1.0;" x1="173.5" x2="173.5" y1="133.94" y2="149.94"/><line style="stroke:#7A003C;stroke-width:1.0;" x1="181.5" x2="165.5" y1="141.94" y2="141.94"/></g><!--link Main to Match--><g id="link_Main_Match"><path codeLine="25" d="M173.5,223.39 C173.5,236.88 173.5,246.62 173.5,261.74 " fill="none" id="Main-to-Match" style="stroke:#7A003C;stroke-width:1.0;stroke-dasharray:7.0,7.0;"/><polygon fill="#7A003C" points="173.5,267.74,177.5,258.74,173.5,262.74,169.5,258.74,173.5,267.74" style="stroke:#7A003C;stroke-width:1.0;"/></g><!--SRC=[PP4nQyCm48Lt_Ofh9eVK3lPeKaCf7Jea63A6K5JrAWiasKZdmOJyzwgnen9RY-1zJxhtf2TbXUw_4R9jrnkTUHeqCg6vzx3doiA5GLWRk7ZYfCGLJ50JxgGluKXEMNawh-SUqTeV9Nk7SsC9RnCAnjQoAvjcFSYmsobZUk9V6gigHkZoS0zQIKq97vPGehkJOYGBu4Nhy3XuGdDFyJTpDYrDDxUoZCNc99fbzJh_FBpkt-45Lbs-Mj3YdnOZJTF9H8toYP_IrtcC-GnHBAAuVZpRQJuauUNgi8TY8VxjOxAi6dEoNm00]--></g></svg>