<?xml version="1.0" encoding="us-ascii" standalone="no"?><svg xmlns="http://www.w3.org/2000/svg" xmlns:xlink="http://www.w3.org/1999/xlink" contentStyleType="text/css" height="311px" preserveAspectRatio="none" style="width:687px;height:311px;background:#FFFFFF;" version="1.1" viewBox="0 0 687 311" width="687px" zoomAndPan="magnify"><defs/><g><!--class Main--><g id="elem_Main"><rect codeLine="2" fill="#FEECCD" height="72.9766" id="Main" rx="5" ry="5" style="stroke:#7A003C;stroke-width:1.0;" width="295" x="7" y="43.73"/><ellipse cx="133.75" cy="59.73" fill="#ADD1B2" rx="11" ry="11" style="stroke:#181818;stroke-width:1.0;"/><path d="M136.2231,65.8731 Q135.6421,66.1719 135.0029,66.3213 Q134.3638,66.4707 133.6582,66.4707 Q131.1514,66.4707 129.8315,64.8189 Q128.5117,63.167 128.5117,60.0459 Q128.5117,56.9165 129.8315,55.2647 Q131.1514,53.6128 133.6582,53.6128 Q134.3638,53.6128 135.0112,53.7622 Q135.6587,53.9116 136.2231,54.2105 L136.2231,56.9331 Q135.5923,56.3521 134.9988,56.0823 Q134.4053,55.8125 133.7744,55.8125 Q132.4297,55.8125 131.7449,56.8792 Q131.0601,57.9458 131.0601,60.0459 Q131.0601,62.1377 131.7449,63.2044 Q132.4297,64.271 133.7744,64.271 Q134.4053,64.271 134.9988,64.0012 Q135.5923,63.7315 136.2231,63.1504 Z " fill="#000000"/><text fill="#000000" font-family="sans-serif" font-size="14" lengthAdjust="spacing" textLength="33" x="154.25" y="65.021">Main</text><line style="stroke:#7A003C;stroke-width:1.0;" x1="8" x2="301" y1="75.73" y2="75.73"/><ellipse cx="18" cy="89.4741" fill="#84BE84" rx="3" ry="3" style="stroke:#038048;stroke-width:1.0;"/><text fill="#000000" font-family="sans-serif" font-size="14" lengthAdjust="spacing" text-decoration="underline" textLength="133" x="27" y="93.2652">main(args: String[])</text><ellipse cx="18" cy="105.9624" fill="#84BE84" rx="3" ry="3" style="stroke:#038048;stroke-width:1.0;"/><text fill="#000000" font-family="sans-serif" font-size="14" lengthAdjust="spacing" text-decoration="underline" textLength="269" x="27" y="109.7534">configure(args: String[]): Configuration</text></g><!--class Configuration--><g id="elem_Configuration"><rect codeLine="7" fill="#FEECCD" height="98.0859" id="Configuration" rx="5" ry="5" style="stroke:#7A003C;stroke-width:1.0;" width="160" x="74.5" y="202.37"/><ellipse cx="103.9" cy="222.6805" fill="#ADD1B2" rx="11" ry="11" style="stroke:#181818;stroke-width:1.0;"/><path d="M106.3731,228.8236 Q105.7921,229.1224 105.1529,229.2719 Q104.5138,229.4213 103.8082,229.4213 Q101.3014,229.4213 99.9815,227.7694 Q98.6617,226.1176 98.6617,222.9965 Q98.6617,219.8671 99.9815,218.2152 Q101.3014,216.5634 103.8082,216.5634 Q104.5138,216.5634 105.1612,216.7128 Q105.8087,216.8622 106.3731,217.161 L106.3731,219.8837 Q105.7423,219.3026 105.1488,219.0328 Q104.5553,218.7631 103.9244,218.7631 Q102.5797,218.7631 101.8949,219.8297 Q101.2101,220.8964 101.2101,222.9965 Q101.2101,225.0883 101.8949,226.1549 Q102.5797,227.2216 103.9244,227.2216 Q104.5553,227.2216 105.1488,226.9518 Q105.7423,226.682 106.3731,226.101 Z " fill="#000000"/><text fill="#000000" font-family="sans-serif" font-size="12" font-style="italic" lengthAdjust="spacing" textLength="73" x="132.6" y="218.9716">&#171;immutable&#187;</text><text fill="#000000" font-family="sans-serif" font-size="14" lengthAdjust="spacing" textLength="96" x="121.1" y="235.038">Configuration</text><line style="stroke:#7A003C;stroke-width:1.0;" x1="75.5" x2="233.5" y1="242.9911" y2="242.9911"/><ellipse cx="85.5" cy="256.7352" fill="none" rx="3" ry="3" style="stroke:#038048;stroke-width:1.0;"/><text fill="#000000" font-family="sans-serif" font-size="14" lengthAdjust="spacing" textLength="134" x="94.5" y="260.5263">p1Strength: Integer</text><ellipse cx="85.5" cy="273.2235" fill="none" rx="3" ry="3" style="stroke:#038048;stroke-width:1.0;"/><text fill="#000000" font-family="sans-serif" font-size="14" lengthAdjust="spacing" textLength="129" x="94.5" y="277.0145">p2Strengh: Integer</text><ellipse cx="85.5" cy="289.7118" fill="none" rx="3" ry="3" style="stroke:#038048;stroke-width:1.0;"/><text fill="#000000" font-family="sans-serif" font-size="14" lengthAdjust="spacing" textLength="134" x="94.5" y="293.5028">scoreSystem: String</text></g><!--class Match--><g id="elem_Match"><rect codeLine="16" fill="#FEECCD" height="146.4414" id="Match" rx="5" ry="5" style="stroke:#7A003C;stroke-width:1.0;" width="333" x="347" y="7"/><ellipse cx="488.75" cy="23" fill="#ADD1B2" rx="11" ry="11" style="stroke:#181818;stroke-width:1.0;"/><path d="M491.2231,29.1431 Q490.6421,29.4419 490.0029,29.5913 Q489.3638,29.7407 488.6582,29.7407 Q486.1514,29.7407 484.8315,28.0889 Q483.5117,26.437 483.5117,23.3159 Q483.5117,20.1865 484.8315,18.5347 Q486.1514,16.8828 488.6582,16.8828 Q489.3638,16.8828 490.0112,17.0322 Q490.6587,17.1816 491.2231,17.4805 L491.2231,20.2031 Q490.5923,19.6221 489.9988,19.3523 Q489.4053,19.0825 488.7744,19.0825 Q487.4297,19.0825 486.7449,20.1492 Q486.0601,21.2158 486.0601,23.3159 Q486.0601,25.4077 486.7449,26.4744 Q487.4297,27.541 488.7744,27.541 Q489.4053,27.541 489.9988,27.2712 Q490.5923,27.0015 491.2231,26.4204 Z " fill="#000000"/><text fill="#000000" font-family="sans-serif" font-size="14" lengthAdjust="spacing" textLength="41" x="509.25" y="28.291">Match</text><line style="stroke:#7A003C;stroke-width:1.0;" x1="348" x2="679" y1="39" y2="39"/><ellipse cx="358" cy="52.7441" fill="none" rx="3" ry="3" style="stroke:#038048;stroke-width:1.0;"/><text fill="#000000" font-family="sans-serif" font-size="14" lengthAdjust="spacing" text-decoration="underline" textLength="111" x="367" y="56.5352">P1_NAME = "p1"</text><ellipse cx="358" cy="69.2324" fill="none" rx="3" ry="3" style="stroke:#038048;stroke-width:1.0;"/><text fill="#000000" font-family="sans-serif" font-size="14" lengthAdjust="spacing" text-decoration="underline" textLength="111" x="367" y="73.0234">P2_NAME = "p2"</text><line style="stroke:#7A003C;stroke-width:1.0;" x1="348" x2="679" y1="79.9766" y2="79.9766"/><ellipse cx="358" cy="93.7207" fill="#84BE84" rx="3" ry="3" style="stroke:#038048;stroke-width:1.0;"/><text fill="#000000" font-family="sans-serif" font-size="14" lengthAdjust="spacing" textLength="307" x="367" y="97.5117">this(strengthP1: Integer, strengthP2: Integer)</text><line style="stroke:#7A003C;stroke-width:1.0;" x1="348" x2="679" y1="104.4648" y2="104.4648"/><ellipse cx="358" cy="118.209" fill="#84BE84" rx="3" ry="3" style="stroke:#038048;stroke-width:1.0;"/><text fill="#000000" font-family="sans-serif" font-size="14" lengthAdjust="spacing" textLength="87" x="367" y="122">play(): Player</text><line style="stroke:#7A003C;stroke-width:1.0;" x1="348" x2="679" y1="128.9531" y2="128.9531"/><rect fill="#F24D5C" height="6" style="stroke:#C82930;stroke-width:1.0;" width="6" x="355" y="139.6973"/><text fill="#000000" font-family="sans-serif" font-size="14" lengthAdjust="spacing" textLength="77" x="367" y="146.4883">playGame()</text></g><!--class ScoreSystem--><g id="elem_ScoreSystem"><rect codeLine="27" fill="#FEECCD" height="105.9531" id="ScoreSystem" rx="5" ry="5" style="stroke:#7A003C;stroke-width:1.0;" width="213" x="407" y="198.44"/><ellipse cx="466.25" cy="214.44" fill="#ADD1B2" rx="11" ry="11" style="stroke:#181818;stroke-width:1.0;"/><path d="M468.7231,220.5831 Q468.1421,220.8819 467.5029,221.0313 Q466.8638,221.1807 466.1582,221.1807 Q463.6514,221.1807 462.3315,219.5289 Q461.0117,217.877 461.0117,214.7559 Q461.0117,211.6265 462.3315,209.9747 Q463.6514,208.3228 466.1582,208.3228 Q466.8638,208.3228 467.5112,208.4722 Q468.1587,208.6216 468.7231,208.9205 L468.7231,211.6431 Q468.0923,211.0621 467.4988,210.7923 Q466.9053,210.5225 466.2744,210.5225 Q464.9297,210.5225 464.2449,211.5892 Q463.5601,212.6558 463.5601,214.7559 Q463.5601,216.8477 464.2449,217.9144 Q464.9297,218.981 466.2744,218.981 Q466.9053,218.981 467.4988,218.7112 Q468.0923,218.4415 468.7231,217.8604 Z " fill="#000000"/><text fill="#000000" font-family="sans-serif" font-size="14" lengthAdjust="spacing" textLength="86" x="486.75" y="219.731">ScoreSystem</text><line style="stroke:#7A003C;stroke-width:1.0;" x1="408" x2="619" y1="230.44" y2="230.44"/><ellipse cx="418" cy="244.1841" fill="#84BE84" rx="3" ry="3" style="stroke:#038048;stroke-width:1.0;"/><text fill="#000000" font-family="sans-serif" font-size="14" lengthAdjust="spacing" textLength="128" x="427" y="247.9752">isEnded(): boolean</text><ellipse cx="418" cy="260.6724" fill="#84BE84" rx="3" ry="3" style="stroke:#038048;stroke-width:1.0;"/><text fill="#000000" font-family="sans-serif" font-size="14" lengthAdjust="spacing" textLength="187" x="427" y="264.4634">winner(): Optional&lt;Player&gt;</text><ellipse cx="418" cy="277.1607" fill="#84BE84" rx="3" ry="3" style="stroke:#038048;stroke-width:1.0;"/><text fill="#000000" font-family="sans-serif" font-size="14" lengthAdjust="spacing" textLength="105" x="427" y="280.9517">score(p: Player)</text><ellipse cx="418" cy="293.649" fill="#84BE84" rx="3" ry="3" style="stroke:#038048;stroke-width:1.0;"/><text fill="#000000" font-family="sans-serif" font-size="14" lengthAdjust="spacing" textLength="100" x="427" y="297.44">status(): String</text></g><!--link Main to Configuration--><g id="link_Main_Configuration"><path codeLine="14" d="M154.5,129.1 C154.5,153.83 154.5,169 154.5,196.06 " fill="none" id="Main-Configuration" style="stroke:#7A003C;stroke-width:1.0;"/><polygon fill="#7A003C" points="154.5,117.1,150.5,123.1,154.5,129.1,158.5,123.1,154.5,117.1" style="stroke:#7A003C;stroke-width:1.0;"/><polygon fill="#7A003C" points="154.5,202.06,158.5,193.06,154.5,197.06,150.5,193.06,154.5,202.06" style="stroke:#7A003C;stroke-width:1.0;"/></g><!--link Main to Match--><g id="link_Main_Match"><path codeLine="34" d="M302.22,80.22 C315.49,80.22 325.69,80.22 340.75,80.22 " fill="none" id="Main-to-Match" style="stroke:#7A003C;stroke-width:1.0;stroke-dasharray:7.0,7.0;"/><polygon fill="#7A003C" points="346.75,80.22,337.75,76.22,341.75,80.22,337.75,84.22,346.75,80.22" style="stroke:#7A003C;stroke-width:1.0;"/></g><!--link Match to ScoreSystem--><g id="link_Match_ScoreSystem"><path codeLine="37" d="M513.5,165.46 C513.5,180.46 513.5,177.99 513.5,192.11 " fill="none" id="Match-ScoreSystem" style="stroke:#7A003C;stroke-width:1.0;"/><polygon fill="#7A003C" points="513.5,153.46,509.5,159.46,513.5,165.46,517.5,159.46,513.5,153.46" style="stroke:#7A003C;stroke-width:1.0;"/><polygon fill="#7A003C" points="513.5,198.11,517.5,189.11,513.5,193.11,509.5,189.11,513.5,198.11" style="stroke:#7A003C;stroke-width:1.0;"/><text fill="#000000" font-family="sans-serif" font-size="13" lengthAdjust="spacing" textLength="39" x="471.8797" y="187.5283">scorer</text></g><!--SRC=[PP9HQuCm58NV_HLtliokIuS-YXF6A6CFtGfz76EaUgU162M9Z5BwtvTer5Rp8ZddvjvxFhnZ8kDjZh1vQjgARvG-SVGoJfM27MK2pXwOiuQpqbIpx0ALKGCg2nN3GKicYg_lrRmcgyKlArg9yy8ONfrb2clXNJmtwqQ6965LrMfwv9YcumfDQFgWA7GPmxlGMA0SdAXt5eRAQec7az9O3LlOcVVpUOIikxXUb_c1a7Isw8X4P-MIoJxy-NZPRU4P_2Rq5suqkL7l4kAATCbKe5oiVJZk_mYZ68tYwlPjm-afC4ZtvkiIEuzqtXkjC5XDZ0yJZ342KrkHOsxR7EkQ8nNE-6D2eBJwPsC9K9xqSz9hj44pZ1_-0HkwLVRTXBk3kabxUfwzMueTPRzh8_thvKp5Fm00]--></g></svg>