<?xml version="1.0" encoding="us-ascii" standalone="no"?><svg xmlns="http://www.w3.org/2000/svg" xmlns:xlink="http://www.w3.org/1999/xlink" contentStyleType="text/css" height="478px" preserveAspectRatio="none" style="width:540px;height:478px;background:#FFFFFF;" version="1.1" viewBox="0 0 540 478" width="540px" zoomAndPan="magnify"><defs/><g><rect fill="#FEECCD" height="386.1504" style="stroke:#7A003C;stroke-width:1.0;" width="10" x="85" y="67.7988"/><rect fill="#FEECCD" height="71.666" style="stroke:#7A003C;stroke-width:1.0;" width="10" x="267" y="107.1094"/><rect fill="#FEECCD" height="231.8633" style="stroke:#7A003C;stroke-width:1.0;" width="10" x="267" y="208.0859"/><rect fill="#FEECCD" height="68.3105" style="stroke:#7A003C;stroke-width:1.0;" width="10" x="272" y="269.707"/><rect fill="#FEECCD" height="16.1777" style="stroke:#7A003C;stroke-width:1.0;" width="10" x="443.5" y="148.5977"/><rect fill="#FEECCD" height="14" style="stroke:#7A003C;stroke-width:1.0;" width="10" x="443.5" y="304.0176"/><rect fill="#FEECCD" height="29.3105" style="stroke:#7A003C;stroke-width:1.0;" width="10" x="443.5" y="381.3281"/><rect fill="none" height="129.9316" rx="5" ry="5" style="stroke:#000000;stroke-width:1.5;" width="335" x="199" y="223.0859"/><line style="stroke:#7A003C;stroke-width:0.5;stroke-dasharray:5.0,5.0;" x1="90" x2="90" y1="36.4883" y2="471.9492"/><line style="stroke:#7A003C;stroke-width:0.5;stroke-dasharray:5.0,5.0;" x1="272" x2="272" y1="106.543" y2="471.9492"/><line style="stroke:#7A003C;stroke-width:0.5;stroke-dasharray:5.0,5.0;" x1="448" x2="448" y1="148.0313" y2="471.9492"/><rect fill="#FEECCD" height="30.4883" rx="5" ry="5" style="stroke:#7A003C;stroke-width:0.5;" width="62" x="59" y="5"/><text fill="#000000" font-family="sans-serif" font-size="14" lengthAdjust="spacing" textLength="48" x="66" y="25.5352">_: Main</text><rect fill="#FEECCD" height="386.1504" style="stroke:#7A003C;stroke-width:1.0;" width="10" x="85" y="67.7988"/><rect fill="#FEECCD" height="71.666" style="stroke:#7A003C;stroke-width:1.0;" width="10" x="267" y="107.1094"/><rect fill="#FEECCD" height="231.8633" style="stroke:#7A003C;stroke-width:1.0;" width="10" x="267" y="208.0859"/><rect fill="#FEECCD" height="68.3105" style="stroke:#7A003C;stroke-width:1.0;" width="10" x="272" y="269.707"/><rect fill="#FEECCD" height="16.1777" style="stroke:#7A003C;stroke-width:1.0;" width="10" x="443.5" y="148.5977"/><rect fill="#FEECCD" height="14" style="stroke:#7A003C;stroke-width:1.0;" width="10" x="443.5" y="304.0176"/><rect fill="#FEECCD" height="29.3105" style="stroke:#7A003C;stroke-width:1.0;" width="10" x="443.5" y="381.3281"/><polygon fill="#7A003C" points="73,63.7988,83,67.7988,73,71.7988,77,67.7988" style="stroke:#7A003C;stroke-width:1.0;"/><line style="stroke:#7A003C;stroke-width:1.0;" x1="0" x2="79" y1="67.7988" y2="67.7988"/><text fill="#000000" font-family="sans-serif" font-size="13" lengthAdjust="spacing" textLength="66" x="7" y="63.0566">main(args)</text><polygon fill="#7A003C" points="197,93.1094,207,97.1094,197,101.1094,201,97.1094" style="stroke:#7A003C;stroke-width:1.0;"/><line style="stroke:#7A003C;stroke-width:1.0;" x1="95" x2="203" y1="97.1094" y2="97.1094"/><text fill="#000000" font-family="sans-serif" font-size="13" lengthAdjust="spacing" textLength="90" x="102" y="92.3672">this(str1, str2)</text><rect fill="#FEECCD" height="30.4883" rx="5" ry="5" style="stroke:#7A003C;stroke-width:0.5;" width="126" x="209" y="75.7988"/><text fill="#000000" font-family="sans-serif" font-size="14" lengthAdjust="spacing" textLength="112" x="216" y="96.334">theMatch: Match</text><polygon fill="#7A003C" points="361,134.5977,371,138.5977,361,142.5977,365,138.5977" style="stroke:#7A003C;stroke-width:1.0;"/><line style="stroke:#7A003C;stroke-width:1.0;" x1="277" x2="367" y1="138.5977" y2="138.5977"/><text fill="#000000" font-family="sans-serif" font-size="13" lengthAdjust="spacing" textLength="72" x="284" y="133.8555">this(p1, p2)</text><rect fill="#FEECCD" height="30.4883" rx="5" ry="5" style="stroke:#7A003C;stroke-width:0.5;" width="151" x="373" y="117.2871"/><text fill="#000000" font-family="sans-serif" font-size="14" lengthAdjust="spacing" textLength="137" x="380" y="137.8223">scorer: ScoreSystem</text><polygon fill="#7A003C" points="288,160.7754,278,164.7754,288,168.7754,284,164.7754" style="stroke:#7A003C;stroke-width:1.0;"/><line style="stroke:#7A003C;stroke-width:1.0;stroke-dasharray:2.0,2.0;" x1="282" x2="447.5" y1="164.7754" y2="164.7754"/><polygon fill="#7A003C" points="106,174.7754,96,178.7754,106,182.7754,102,178.7754" style="stroke:#7A003C;stroke-width:1.0;"/><line style="stroke:#7A003C;stroke-width:1.0;stroke-dasharray:2.0,2.0;" x1="100" x2="271" y1="178.7754" y2="178.7754"/><polygon fill="#7A003C" points="255,204.0859,265,208.0859,255,212.0859,259,208.0859" style="stroke:#7A003C;stroke-width:1.0;"/><line style="stroke:#7A003C;stroke-width:1.0;" x1="95" x2="261" y1="208.0859" y2="208.0859"/><text fill="#000000" font-family="sans-serif" font-size="13" lengthAdjust="spacing" textLength="34" x="102" y="203.3438">play()</text><path d="M204,223.0859 L273,223.0859 L273,230.3965 L263,240.3965 L199,240.3965 L199,228.0859 A5,5 0 0 1 204,223.0859 " fill="#EEEEEE" style="stroke:#000000;stroke-width:1.5;"/><rect fill="none" height="129.9316" rx="5" ry="5" style="stroke:#000000;stroke-width:1.5;" width="335" x="199" y="223.0859"/><text fill="#000000" font-family="sans-serif" font-size="13" font-weight="bold" lengthAdjust="spacing" textLength="29" x="214" y="236.6543">loop</text><text fill="#000000" font-family="sans-serif" font-size="11" font-weight="bold" lengthAdjust="spacing" textLength="98" x="288" y="235.7207">[!scorer.isEnded?]</text><line style="stroke:#7A003C;stroke-width:1.0;" x1="277" x2="324" y1="256.707" y2="256.707"/><line style="stroke:#7A003C;stroke-width:1.0;" x1="324" x2="324" y1="256.707" y2="269.707"/><line style="stroke:#7A003C;stroke-width:1.0;" x1="283" x2="324" y1="269.707" y2="269.707"/><polygon fill="#7A003C" points="293,265.707,283,269.707,293,273.707,289,269.707" style="stroke:#7A003C;stroke-width:1.0;"/><text fill="#000000" font-family="sans-serif" font-size="13" lengthAdjust="spacing" textLength="69" x="289" y="251.9648">playGame()</text><polygon fill="#7A003C" points="431.5,300.0176,441.5,304.0176,431.5,308.0176,435.5,304.0176" style="stroke:#7A003C;stroke-width:1.0;"/><line style="stroke:#7A003C;stroke-width:1.0;" x1="282" x2="437.5" y1="304.0176" y2="304.0176"/><text fill="#000000" font-family="sans-serif" font-size="13" lengthAdjust="spacing" textLength="92" x="289" y="299.2754">score(p1 || p2)</text><polygon fill="#7A003C" points="293,314.0176,283,318.0176,293,322.0176,289,318.0176" style="stroke:#7A003C;stroke-width:1.0;"/><line style="stroke:#7A003C;stroke-width:1.0;stroke-dasharray:2.0,2.0;" x1="287" x2="447.5" y1="318.0176" y2="318.0176"/><line style="stroke:#7A003C;stroke-width:1.0;stroke-dasharray:2.0,2.0;" x1="282" x2="324" y1="337.0176" y2="337.0176"/><line style="stroke:#7A003C;stroke-width:1.0;stroke-dasharray:2.0,2.0;" x1="324" x2="324" y1="337.0176" y2="350.0176"/><line style="stroke:#7A003C;stroke-width:1.0;stroke-dasharray:2.0,2.0;" x1="277" x2="324" y1="350.0176" y2="350.0176"/><polygon fill="#7A003C" points="287,346.0176,277,350.0176,287,354.0176,283,350.0176" style="stroke:#7A003C;stroke-width:1.0;"/><polygon fill="#7A003C" points="431.5,377.3281,441.5,381.3281,431.5,385.3281,435.5,381.3281" style="stroke:#7A003C;stroke-width:1.0;"/><line style="stroke:#7A003C;stroke-width:1.0;" x1="277" x2="437.5" y1="381.3281" y2="381.3281"/><text fill="#000000" font-family="sans-serif" font-size="13" lengthAdjust="spacing" textLength="50" x="284" y="376.5859">winner()</text><polygon fill="#7A003C" points="288,406.6387,278,410.6387,288,414.6387,284,410.6387" style="stroke:#7A003C;stroke-width:1.0;"/><line style="stroke:#7A003C;stroke-width:1.0;stroke-dasharray:2.0,2.0;" x1="282" x2="447.5" y1="410.6387" y2="410.6387"/><text fill="#000000" font-family="sans-serif" font-size="13" lengthAdjust="spacing" textLength="10" x="294" y="405.8965">w</text><polygon fill="#7A003C" points="106,435.9492,96,439.9492,106,443.9492,102,439.9492" style="stroke:#7A003C;stroke-width:1.0;"/><line style="stroke:#7A003C;stroke-width:1.0;stroke-dasharray:2.0,2.0;" x1="100" x2="271" y1="439.9492" y2="439.9492"/><text fill="#000000" font-family="sans-serif" font-size="13" lengthAdjust="spacing" textLength="10" x="112" y="435.207">w</text><polygon fill="#7A003C" points="11,449.9492,1,453.9492,11,457.9492,7,453.9492" style="stroke:#7A003C;stroke-width:1.0;"/><line style="stroke:#7A003C;stroke-width:1.0;stroke-dasharray:2.0,2.0;" x1="5" x2="89" y1="453.9492" y2="453.9492"/><!--SRC=[TOynRyGW38Lt_mhVJJcfJTME6ThfrEccZ1qgYrWD4Y48d9uYtOyla5H7rCO367Zly-EWhJ9JnrW_kMamTP3PC01DCf8I_Kt2E5e0HrwqqewiuF6pmGjfUqGAkTc-IiyN4jKdKTnMLUosig16pxx1Dktj78I7BCrd3_3n-9hX3GvnhSX_XHC0nbAUKwo5YMibAMPB7Ysz3bKG__o0SNrPdOLx7OD5PMjYj6kq374HuIAWL7gMoLieMlWdWpCqLtUZ6KU7X-NRjGvdst7tji7U4nI4TnguEkteVfDcQeoAjzkVi6NQlJks7Up2hzfQzaM6nOnNs1oMvWS0]--></g></svg>