<?xml version="1.0" encoding="us-ascii" standalone="no"?><svg xmlns="http://www.w3.org/2000/svg" xmlns:xlink="http://www.w3.org/1999/xlink" contentStyleType="text/css" height="437px" preserveAspectRatio="none" style="width:1087px;height:437px;background:#FFFFFF;" version="1.1" viewBox="0 0 1087 437" width="1087px" zoomAndPan="magnify"><defs/><g><!--cluster scorer--><g id="cluster_scorer"><path d="M240.5,172.44 L280.5,172.44 A7.5,7.5 0 0 1 285.5,177.44 L292.5,194.9283 L960.5,194.9283 A5,5 0 0 1 965.5,199.9283 L965.5,425.88 A5,5 0 0 1 960.5,430.88 L240.5,430.88 A5,5 0 0 1 235.5,425.88 L235.5,177.44 A5,5 0 0 1 240.5,172.44 " fill="none" style="stroke:#000000;stroke-width:1.5;"/><line style="stroke:#000000;stroke-width:1.5;" x1="235.5" x2="292.5" y1="194.9283" y2="194.9283"/><text fill="#000000" font-family="sans-serif" font-size="14" font-weight="bold" lengthAdjust="spacing" textLength="44" x="239.5" y="187.9752">scorer</text></g><!--class ScoreSystem--><g id="elem_ScoreSystem"><rect codeLine="45" fill="#FEECCD" height="105.9531" id="ScoreSystem" rx="5" ry="5" style="stroke:#7A003C;stroke-width:1.0;" width="213" x="490" y="207.44"/><ellipse cx="549.25" cy="223.44" fill="#B4A7E5" rx="11" ry="11" style="stroke:#181818;stroke-width:1.0;"/><path d="M545.6777,219.7051 L545.6777,217.5469 L553.0571,217.5469 L553.0571,219.7051 L550.5918,219.7051 L550.5918,227.7818 L553.0571,227.7818 L553.0571,229.94 L545.6777,229.94 L545.6777,227.7818 L548.1431,227.7818 L548.1431,219.7051 Z " fill="#000000"/><text fill="#000000" font-family="sans-serif" font-size="14" font-style="italic" lengthAdjust="spacing" textLength="86" x="569.75" y="228.731">ScoreSystem</text><line style="stroke:#7A003C;stroke-width:1.0;" x1="491" x2="702" y1="239.44" y2="239.44"/><ellipse cx="501" cy="253.1841" fill="#84BE84" rx="3" ry="3" style="stroke:#038048;stroke-width:1.0;"/><text fill="#000000" font-family="sans-serif" font-size="14" lengthAdjust="spacing" textLength="128" x="510" y="256.9752">isEnded(): boolean</text><ellipse cx="501" cy="269.6724" fill="#84BE84" rx="3" ry="3" style="stroke:#038048;stroke-width:1.0;"/><text fill="#000000" font-family="sans-serif" font-size="14" lengthAdjust="spacing" textLength="187" x="510" y="273.4634">winner(): Optional&lt;Player&gt;</text><ellipse cx="501" cy="286.1607" fill="#84BE84" rx="3" ry="3" style="stroke:#038048;stroke-width:1.0;"/><text fill="#000000" font-family="sans-serif" font-size="14" lengthAdjust="spacing" textLength="105" x="510" y="289.9517">score(p: Player)</text><ellipse cx="501" cy="302.649" fill="#84BE84" rx="3" ry="3" style="stroke:#038048;stroke-width:1.0;"/><text fill="#000000" font-family="sans-serif" font-size="14" lengthAdjust="spacing" textLength="100" x="510" y="306.44">status(): String</text></g><!--class StupidMVP--><g id="elem_StupidMVP"><rect codeLine="52" fill="#FEECCD" height="56.4883" id="StupidMVP" rx="5" ry="5" style="stroke:#7A003C;stroke-width:1.0;" width="203" x="251" y="358.39"/><ellipse cx="311.75" cy="374.39" fill="#ADD1B2" rx="11" ry="11" style="stroke:#181818;stroke-width:1.0;"/><path d="M314.2231,380.5331 Q313.6421,380.8319 313.0029,380.9813 Q312.3638,381.1307 311.6582,381.1307 Q309.1514,381.1307 307.8315,379.4789 Q306.5117,377.827 306.5117,374.7059 Q306.5117,371.5765 307.8315,369.9247 Q309.1514,368.2728 311.6582,368.2728 Q312.3638,368.2728 313.0112,368.4222 Q313.6587,368.5716 314.2231,368.8705 L314.2231,371.5931 Q313.5923,371.0121 312.9988,370.7423 Q312.4053,370.4725 311.7744,370.4725 Q310.4297,370.4725 309.7449,371.5392 Q309.0601,372.6058 309.0601,374.7059 Q309.0601,376.7977 309.7449,377.8644 Q310.4297,378.931 311.7744,378.931 Q312.4053,378.931 312.9988,378.6612 Q313.5923,378.3915 314.2231,377.8104 Z " fill="#000000"/><text fill="#000000" font-family="sans-serif" font-size="14" lengthAdjust="spacing" textLength="73" x="332.25" y="379.681">StupidMVP</text><line style="stroke:#7A003C;stroke-width:1.0;" x1="252" x2="453" y1="390.39" y2="390.39"/><ellipse cx="262" cy="404.1341" fill="#84BE84" rx="3" ry="3" style="stroke:#038048;stroke-width:1.0;"/><text fill="#000000" font-family="sans-serif" font-size="14" lengthAdjust="spacing" textLength="177" x="271" y="407.9252">this(p1: Player, p2: Player)</text></g><!--class Exhaustive--><g id="elem_Exhaustive"><rect codeLine="56" fill="#FEECCD" height="56.4883" id="Exhaustive" rx="5" ry="5" style="stroke:#7A003C;stroke-width:1.0;" width="203" x="499" y="358.39"/><ellipse cx="559.25" cy="374.39" fill="#ADD1B2" rx="11" ry="11" style="stroke:#181818;stroke-width:1.0;"/><path d="M561.7231,380.5331 Q561.1421,380.8319 560.5029,380.9813 Q559.8638,381.1307 559.1582,381.1307 Q556.6514,381.1307 555.3315,379.4789 Q554.0117,377.827 554.0117,374.7059 Q554.0117,371.5765 555.3315,369.9247 Q556.6514,368.2728 559.1582,368.2728 Q559.8638,368.2728 560.5112,368.4222 Q561.1587,368.5716 561.7231,368.8705 L561.7231,371.5931 Q561.0923,371.0121 560.4988,370.7423 Q559.9053,370.4725 559.2744,370.4725 Q557.9297,370.4725 557.2449,371.5392 Q556.5601,372.6058 556.5601,374.7059 Q556.5601,376.7977 557.2449,377.8644 Q557.9297,378.931 559.2744,378.931 Q559.9053,378.931 560.4988,378.6612 Q561.0923,378.3915 561.7231,377.8104 Z " fill="#000000"/><text fill="#000000" font-family="sans-serif" font-size="14" lengthAdjust="spacing" textLength="74" x="579.75" y="379.681">Exhaustive</text><line style="stroke:#7A003C;stroke-width:1.0;" x1="500" x2="701" y1="390.39" y2="390.39"/><ellipse cx="510" cy="404.1341" fill="#84BE84" rx="3" ry="3" style="stroke:#038048;stroke-width:1.0;"/><text fill="#000000" font-family="sans-serif" font-size="14" lengthAdjust="spacing" textLength="177" x="519" y="407.9252">this(p1: Player, p2: Player)</text></g><!--class CleverCounting--><g id="elem_CleverCounting"><rect codeLine="60" fill="#FEECCD" height="56.4883" id="CleverCounting" rx="5" ry="5" style="stroke:#7A003C;stroke-width:1.0;" width="203" x="747" y="358.39"/><ellipse cx="790.8" cy="374.39" fill="#ADD1B2" rx="11" ry="11" style="stroke:#181818;stroke-width:1.0;"/><path d="M793.2731,380.5331 Q792.6921,380.8319 792.0529,380.9813 Q791.4138,381.1307 790.7082,381.1307 Q788.2014,381.1307 786.8815,379.4789 Q785.5617,377.827 785.5617,374.7059 Q785.5617,371.5765 786.8815,369.9247 Q788.2014,368.2728 790.7082,368.2728 Q791.4138,368.2728 792.0612,368.4222 Q792.7087,368.5716 793.2731,368.8705 L793.2731,371.5931 Q792.6423,371.0121 792.0488,370.7423 Q791.4553,370.4725 790.8244,370.4725 Q789.4797,370.4725 788.7949,371.5392 Q788.1101,372.6058 788.1101,374.7059 Q788.1101,376.7977 788.7949,377.8644 Q789.4797,378.931 790.8244,378.931 Q791.4553,378.931 792.0488,378.6612 Q792.6423,378.3915 793.2731,377.8104 Z " fill="#000000"/><text fill="#000000" font-family="sans-serif" font-size="14" lengthAdjust="spacing" textLength="107" x="811.2" y="379.681">CleverCounting</text><line style="stroke:#7A003C;stroke-width:1.0;" x1="748" x2="949" y1="390.39" y2="390.39"/><ellipse cx="758" cy="404.1341" fill="#84BE84" rx="3" ry="3" style="stroke:#038048;stroke-width:1.0;"/><text fill="#000000" font-family="sans-serif" font-size="14" lengthAdjust="spacing" textLength="177" x="767" y="407.9252">this(p1: Player, p2: Player)</text></g><!--class Main--><g id="elem_Main"><rect codeLine="2" fill="#FEECCD" height="72.9766" id="Main" rx="5" ry="5" style="stroke:#7A003C;stroke-width:1.0;" width="295" x="7" y="46.73"/><ellipse cx="133.75" cy="62.73" fill="#ADD1B2" rx="11" ry="11" style="stroke:#181818;stroke-width:1.0;"/><path d="M136.2231,68.8731 Q135.6421,69.1719 135.0029,69.3213 Q134.3638,69.4707 133.6582,69.4707 Q131.1514,69.4707 129.8315,67.8189 Q128.5117,66.167 128.5117,63.0459 Q128.5117,59.9165 129.8315,58.2647 Q131.1514,56.6128 133.6582,56.6128 Q134.3638,56.6128 135.0112,56.7622 Q135.6587,56.9116 136.2231,57.2105 L136.2231,59.9331 Q135.5923,59.3521 134.9988,59.0823 Q134.4053,58.8125 133.7744,58.8125 Q132.4297,58.8125 131.7449,59.8792 Q131.0601,60.9458 131.0601,63.0459 Q131.0601,65.1377 131.7449,66.2044 Q132.4297,67.271 133.7744,67.271 Q134.4053,67.271 134.9988,67.0012 Q135.5923,66.7315 136.2231,66.1504 Z " fill="#000000"/><text fill="#000000" font-family="sans-serif" font-size="14" lengthAdjust="spacing" textLength="33" x="154.25" y="68.021">Main</text><line style="stroke:#7A003C;stroke-width:1.0;" x1="8" x2="301" y1="78.73" y2="78.73"/><ellipse cx="18" cy="92.4741" fill="#84BE84" rx="3" ry="3" style="stroke:#038048;stroke-width:1.0;"/><text fill="#000000" font-family="sans-serif" font-size="14" lengthAdjust="spacing" text-decoration="underline" textLength="133" x="27" y="96.2652">main(args: String[])</text><ellipse cx="18" cy="108.9624" fill="#84BE84" rx="3" ry="3" style="stroke:#038048;stroke-width:1.0;"/><text fill="#000000" font-family="sans-serif" font-size="14" lengthAdjust="spacing" text-decoration="underline" textLength="269" x="27" y="112.7534">configure(args: String[]): Configuration</text></g><!--class Configuration--><g id="elem_Configuration"><rect codeLine="7" fill="#FEECCD" height="98.0859" id="Configuration" rx="5" ry="5" style="stroke:#7A003C;stroke-width:1.0;" width="160" x="59.5" y="211.37"/><ellipse cx="88.9" cy="231.6805" fill="#ADD1B2" rx="11" ry="11" style="stroke:#181818;stroke-width:1.0;"/><path d="M91.3731,237.8236 Q90.7921,238.1224 90.1529,238.2719 Q89.5138,238.4213 88.8082,238.4213 Q86.3014,238.4213 84.9815,236.7694 Q83.6617,235.1176 83.6617,231.9965 Q83.6617,228.8671 84.9815,227.2152 Q86.3014,225.5634 88.8082,225.5634 Q89.5138,225.5634 90.1612,225.7128 Q90.8087,225.8622 91.3731,226.161 L91.3731,228.8837 Q90.7423,228.3026 90.1488,228.0328 Q89.5553,227.7631 88.9244,227.7631 Q87.5797,227.7631 86.8949,228.8297 Q86.2101,229.8964 86.2101,231.9965 Q86.2101,234.0883 86.8949,235.1549 Q87.5797,236.2216 88.9244,236.2216 Q89.5553,236.2216 90.1488,235.9518 Q90.7423,235.682 91.3731,235.101 Z " fill="#000000"/><text fill="#000000" font-family="sans-serif" font-size="12" font-style="italic" lengthAdjust="spacing" textLength="73" x="117.6" y="227.9716">&#171;immutable&#187;</text><text fill="#000000" font-family="sans-serif" font-size="14" lengthAdjust="spacing" textLength="96" x="106.1" y="244.038">Configuration</text><line style="stroke:#7A003C;stroke-width:1.0;" x1="60.5" x2="218.5" y1="251.9911" y2="251.9911"/><ellipse cx="70.5" cy="265.7352" fill="none" rx="3" ry="3" style="stroke:#038048;stroke-width:1.0;"/><text fill="#000000" font-family="sans-serif" font-size="14" lengthAdjust="spacing" textLength="134" x="79.5" y="269.5263">p1Strength: Integer</text><ellipse cx="70.5" cy="282.2235" fill="none" rx="3" ry="3" style="stroke:#038048;stroke-width:1.0;"/><text fill="#000000" font-family="sans-serif" font-size="14" lengthAdjust="spacing" textLength="129" x="79.5" y="286.0145">p2Strengh: Integer</text><ellipse cx="70.5" cy="298.7118" fill="none" rx="3" ry="3" style="stroke:#038048;stroke-width:1.0;"/><text fill="#000000" font-family="sans-serif" font-size="14" lengthAdjust="spacing" textLength="134" x="79.5" y="302.5028">scoreSystem: String</text></g><!--class Player--><g id="elem_Player"><rect codeLine="16" fill="#FEECCD" height="97.4648" id="Player" rx="5" ry="5" style="stroke:#7A003C;stroke-width:1.0;" width="206" x="874.5" y="34.49"/><ellipse cx="952.75" cy="50.49" fill="#ADD1B2" rx="11" ry="11" style="stroke:#181818;stroke-width:1.0;"/><path d="M955.2231,56.6331 Q954.6421,56.9319 954.0029,57.0813 Q953.3638,57.2307 952.6582,57.2307 Q950.1514,57.2307 948.8315,55.5789 Q947.5117,53.927 947.5117,50.8059 Q947.5117,47.6765 948.8315,46.0247 Q950.1514,44.3728 952.6582,44.3728 Q953.3638,44.3728 954.0112,44.5222 Q954.6587,44.6716 955.2231,44.9705 L955.2231,47.6931 Q954.5923,47.1121 953.9988,46.8423 Q953.4053,46.5725 952.7744,46.5725 Q951.4297,46.5725 950.7449,47.6392 Q950.0601,48.7058 950.0601,50.8059 Q950.0601,52.8977 950.7449,53.9644 Q951.4297,55.031 952.7744,55.031 Q953.4053,55.031 953.9988,54.7612 Q954.5923,54.4915 955.2231,53.9104 Z " fill="#000000"/><text fill="#000000" font-family="sans-serif" font-size="14" lengthAdjust="spacing" textLength="41" x="973.25" y="55.781">Player</text><line style="stroke:#7A003C;stroke-width:1.0;" x1="875.5" x2="1079.5" y1="66.49" y2="66.49"/><rect fill="none" height="6" style="stroke:#C82930;stroke-width:1.0;" width="6" x="882.5" y="77.2341"/><text fill="#000000" font-family="sans-serif" font-size="14" lengthAdjust="spacing" textLength="87" x="894.5" y="84.0252">name: String</text><rect fill="none" height="6" style="stroke:#C82930;stroke-width:1.0;" width="6" x="882.5" y="93.7224"/><text fill="#000000" font-family="sans-serif" font-size="14" lengthAdjust="spacing" textLength="115" x="894.5" y="100.5134">strength: Integer</text><line style="stroke:#7A003C;stroke-width:1.0;" x1="875.5" x2="1079.5" y1="107.4666" y2="107.4666"/><ellipse cx="885.5" cy="121.2107" fill="#84BE84" rx="3" ry="3" style="stroke:#038048;stroke-width:1.0;"/><text fill="#000000" font-family="sans-serif" font-size="14" lengthAdjust="spacing" textLength="180" x="894.5" y="125.0017">equals(o: Object): boolean</text></g><!--class Match--><g id="elem_Match"><rect codeLine="22" fill="#FEECCD" height="146.4414" id="Match" rx="5" ry="5" style="stroke:#7A003C;stroke-width:1.0;" width="475" x="355" y="10"/><ellipse cx="567.75" cy="26" fill="#ADD1B2" rx="11" ry="11" style="stroke:#181818;stroke-width:1.0;"/><path d="M570.2231,32.1431 Q569.6421,32.4419 569.0029,32.5913 Q568.3638,32.7407 567.6582,32.7407 Q565.1514,32.7407 563.8315,31.0889 Q562.5117,29.437 562.5117,26.3159 Q562.5117,23.1865 563.8315,21.5347 Q565.1514,19.8828 567.6582,19.8828 Q568.3638,19.8828 569.0112,20.0322 Q569.6587,20.1816 570.2231,20.4805 L570.2231,23.2031 Q569.5923,22.6221 568.9988,22.3523 Q568.4053,22.0825 567.7744,22.0825 Q566.4297,22.0825 565.7449,23.1492 Q565.0601,24.2158 565.0601,26.3159 Q565.0601,28.4077 565.7449,29.4744 Q566.4297,30.541 567.7744,30.541 Q568.4053,30.541 568.9988,30.2712 Q569.5923,30.0015 570.2231,29.4204 Z " fill="#000000"/><text fill="#000000" font-family="sans-serif" font-size="14" lengthAdjust="spacing" textLength="41" x="588.25" y="31.291">Match</text><line style="stroke:#7A003C;stroke-width:1.0;" x1="356" x2="829" y1="42" y2="42"/><ellipse cx="366" cy="55.7441" fill="none" rx="3" ry="3" style="stroke:#038048;stroke-width:1.0;"/><text fill="#000000" font-family="sans-serif" font-size="14" lengthAdjust="spacing" text-decoration="underline" textLength="111" x="375" y="59.5352">P1_NAME = "p1"</text><ellipse cx="366" cy="72.2324" fill="none" rx="3" ry="3" style="stroke:#038048;stroke-width:1.0;"/><text fill="#000000" font-family="sans-serif" font-size="14" lengthAdjust="spacing" text-decoration="underline" textLength="111" x="375" y="76.0234">P2_NAME = "p2"</text><line style="stroke:#7A003C;stroke-width:1.0;" x1="356" x2="829" y1="82.9766" y2="82.9766"/><ellipse cx="366" cy="96.7207" fill="#84BE84" rx="3" ry="3" style="stroke:#038048;stroke-width:1.0;"/><text fill="#000000" font-family="sans-serif" font-size="14" lengthAdjust="spacing" textLength="449" x="375" y="100.5117">this(strengthP1: Integer, strengthP2: Integer, scoreSystem: String)</text><line style="stroke:#7A003C;stroke-width:1.0;" x1="356" x2="829" y1="107.4648" y2="107.4648"/><ellipse cx="366" cy="121.209" fill="#84BE84" rx="3" ry="3" style="stroke:#038048;stroke-width:1.0;"/><text fill="#000000" font-family="sans-serif" font-size="14" lengthAdjust="spacing" textLength="87" x="375" y="125">play(): Player</text><line style="stroke:#7A003C;stroke-width:1.0;" x1="356" x2="829" y1="131.9531" y2="131.9531"/><rect fill="#F24D5C" height="6" style="stroke:#C82930;stroke-width:1.0;" width="6" x="363" y="142.6973"/><text fill="#000000" font-family="sans-serif" font-size="14" lengthAdjust="spacing" textLength="77" x="375" y="149.4883">playGame()</text></g><!--link Main to Configuration--><g id="link_Main_Configuration"><path codeLine="15" d="M150.0625,136.0315 C147.8125,162.2615 146.6212,176.2118 144.1612,204.9818 " fill="none" id="Main-Configuration" style="stroke:#7A003C;stroke-width:1.0;"/><ellipse cx="150.7463" cy="128.0607" fill="#FFFFFF" rx="8" ry="8" style="stroke:#7A003C;stroke-width:1.0;"/><line style="stroke:#7A003C;stroke-width:1.0;" x1="150.0625" x2="151.43" y1="136.0315" y2="120.09"/><line style="stroke:#7A003C;stroke-width:1.0;" x1="142.7755" x2="158.717" y1="127.377" y2="128.7445"/><polygon fill="#7A003C" points="143.65,210.96,148.4022,202.3335,144.076,205.9782,140.4313,201.6519,143.65,210.96" style="stroke:#7A003C;stroke-width:1.0;"/></g><!--link Main to Match--><g id="link_Main_Match"><path codeLine="33" d="M302.14,83.22 C308.15,83.22 323.96,83.22 348.87,83.22 " fill="none" id="Main-to-Match" style="stroke:#7A003C;stroke-width:1.0;stroke-dasharray:7.0,7.0;"/><polygon fill="#7A003C" points="354.87,83.22,345.87,79.22,349.87,83.22,345.87,87.22,354.87,83.22" style="stroke:#7A003C;stroke-width:1.0;"/></g><!--link Match to Player--><g id="link_Match_Player"><path codeLine="38" d="M842.23,156.44 C853.64,156.44 849.17,156.44 849.17,156.44 C849.17,156.44 862.9592,148.5744 886.3292,135.2344 " fill="none" id="Match-Player" style="stroke:#7A003C;stroke-width:1.0;"/><polygon fill="#7A003C" points="830.23,156.44,836.23,160.44,842.23,156.44,836.23,152.44,830.23,156.44" style="stroke:#7A003C;stroke-width:1.0;"/><polygon fill="#7A003C" points="891.54,132.26,881.7408,133.2478,887.1976,134.7387,885.7067,140.1955,891.54,132.26" style="stroke:#7A003C;stroke-width:1.0;"/><text fill="#000000" font-family="sans-serif" font-size="13" lengthAdjust="spacing" textLength="16" x="862.9141" y="152.4465">p1</text></g><!--link Match to Player--><g id="link_Match_Player"><path codeLine="39" d="M842.23,10 C853.64,10 849.17,10 849.17,10 C849.17,10 862.9592,17.8656 886.3292,31.2056 " fill="none" id="Match-Player-1" style="stroke:#7A003C;stroke-width:1.0;"/><polygon fill="#7A003C" points="830.23,10,836.23,14,842.23,10,836.23,6,830.23,10" style="stroke:#7A003C;stroke-width:1.0;"/><polygon fill="#7A003C" points="891.54,34.18,885.7067,26.2445,887.1976,31.7013,881.7408,33.1922,891.54,34.18" style="stroke:#7A003C;stroke-width:1.0;"/><text fill="#000000" font-family="sans-serif" font-size="13" lengthAdjust="spacing" textLength="16" x="862.3269" y="23.8189">p2</text></g><!--link Match to ScoreSystem--><g id="link_Match_ScoreSystem"><path codeLine="41" d="M594.4306,168.7369 C594.8106,185.5869 594.8032,185.2116 595.1632,201.0016 " fill="none" id="Match-ScoreSystem" style="stroke:#7A003C;stroke-width:1.0;"/><polygon fill="#7A003C" points="594.16,156.74,590.2963,162.8287,594.4306,168.7369,598.2943,162.6483,594.16,156.74" style="stroke:#7A003C;stroke-width:1.0;"/><polygon fill="#7A003C" points="595.3,207,599.0938,197.9112,595.186,202.0013,591.0959,198.0935,595.3,207" style="stroke:#7A003C;stroke-width:1.0;"/><text fill="#000000" font-family="sans-serif" font-size="13" lengthAdjust="spacing" textLength="39" x="553.6478" y="196.7833">scorer</text></g><!--reverse link ScoreSystem to StupidMVP--><g id="link_ScoreSystem_StupidMVP"><path d="M477.6877,321.9037 C447.8577,337.0837 432.51,344.9 406.91,357.94 " fill="none" id="ScoreSystem-backto-StupidMVP" style="stroke:#7A003C;stroke-width:1.0;stroke-dasharray:7.0,7.0;"/><polygon fill="none" points="493.73,313.74,474.9665,316.5562,480.4089,327.2511,493.73,313.74" style="stroke:#7A003C;stroke-width:1.0;"/></g><!--reverse link ScoreSystem to Exhaustive--><g id="link_ScoreSystem_Exhaustive"><path d="M598.7698,331.7303 C599.2698,346.9803 599.19,345.04 599.61,358.11 " fill="none" id="ScoreSystem-backto-Exhaustive" style="stroke:#7A003C;stroke-width:1.0;stroke-dasharray:7.0,7.0;"/><polygon fill="none" points="598.18,313.74,592.7731,331.9269,604.7666,331.5337,598.18,313.74" style="stroke:#7A003C;stroke-width:1.0;"/></g><!--reverse link ScoreSystem to CleverCounting--><g id="link_ScoreSystem_CleverCounting"><path d="M718.7856,321.6975 C749.5856,336.8775 765.87,344.9 792.31,357.94 " fill="none" id="ScoreSystem-backto-CleverCounting" style="stroke:#7A003C;stroke-width:1.0;stroke-dasharray:7.0,7.0;"/><polygon fill="none" points="702.64,313.74,716.1331,327.0793,721.438,316.3156,702.64,313.74" style="stroke:#7A003C;stroke-width:1.0;"/></g><!--SRC=[hPD1R-8m48Nl_XNUN3QKXYev8ZRI2g7L7cWZ8UrbLLN6J8DRn_7QJdTHnNzVnqw24zHRkI3DDyoyzyPyOOBovW1uSIURYY-qEN50b1EjyPOmWTyHjfyvVjU664RFkBBLcAXIB_7EA2RAtu-pQG-jnJCh6mNJnYLUTyWsrWATKRThLCQh5Qkgnf0zXpmV9CZKpW5HckCI_nG6Ib0zoJov0fhM2dOdRQ3gLRGxlqxM9SdSkKN8UPudIJuHwbKMd9n0TO8IB4W5mrXVqXyeX3yDuJgkb_XX_mBKs2JsTSs111biYQ77wy2BzEd- -tQ3l-58fj4LpIuqypH9kYPpP3hk5HNfeEbsa5baOV4whDbueBJ-OolTvn2onB4VDf1urZfoEIvoxya6tYKNIVUTHctcDnsTm6m4aK_bnbwajT-l3glPK1tARTtPKP6tfHQxYpk49A6lf8IEsSoT2MQJKC-40WwQkuFu09ZUY0CSuk1y5_YN2G6gPG-oVJI4hxokF6Xo6sFPPpWBaJrfezlV1q_gxANv5x8pZMI7xQy2iqfog40O_Q5MTtsPzfjkxRzal7KqUlFlI1fjs1jy_kmrXpTGwxeHnjhwhFbdz1y0]--></g></svg>