<?xml version="1.0" encoding="us-ascii" standalone="no"?><svg xmlns="http://www.w3.org/2000/svg" xmlns:xlink="http://www.w3.org/1999/xlink" contentStyleType="text/css" height="621px" preserveAspectRatio="none" style="width:823px;height:621px;background:#FFFFFF;" version="1.1" viewBox="0 0 823 621" width="823px" zoomAndPan="magnify"><defs/><g><rect fill="#FEECCD" height="528.4375" style="stroke:#7A003C;stroke-width:1.0;" width="10" x="85" y="67.7988"/><rect fill="#FEECCD" height="213.9531" style="stroke:#7A003C;stroke-width:1.0;" width="10" x="320" y="107.1094"/><rect fill="#FEECCD" height="231.8633" style="stroke:#7A003C;stroke-width:1.0;" width="10" x="320" y="350.373"/><rect fill="#FEECCD" height="68.3105" style="stroke:#7A003C;stroke-width:1.0;" width="10" x="325" y="411.9941"/><rect fill="#FEECCD" height="16.1777" style="stroke:#7A003C;stroke-width:1.0;" width="10" x="480.5" y="148.5977"/><rect fill="#FEECCD" height="16.1777" style="stroke:#7A003C;stroke-width:1.0;" width="10" x="571.5" y="204.0859"/><rect fill="#FEECCD" height="16.1777" style="stroke:#7A003C;stroke-width:1.0;" width="10" x="712" y="283.8848"/><rect fill="#FEECCD" height="14" style="stroke:#7A003C;stroke-width:1.0;" width="10" x="712" y="446.3047"/><rect fill="#FEECCD" height="29.3105" style="stroke:#7A003C;stroke-width:1.0;" width="10" x="712" y="523.6152"/><rect fill="none" height="72.7988" rx="5" ry="5" style="stroke:#000000;stroke-width:1.5;" width="565" x="252" y="235.2637"/><rect fill="none" height="129.9316" rx="5" ry="5" style="stroke:#000000;stroke-width:1.5;" width="565" x="252" y="365.373"/><line style="stroke:#7A003C;stroke-width:0.5;stroke-dasharray:5.0,5.0;" x1="90" x2="90" y1="36.4883" y2="614.2363"/><line style="stroke:#7A003C;stroke-width:0.5;stroke-dasharray:5.0,5.0;" x1="325" x2="325" y1="106.543" y2="614.2363"/><line style="stroke:#7A003C;stroke-width:0.5;stroke-dasharray:5.0,5.0;" x1="485" x2="485" y1="148.0313" y2="614.2363"/><line style="stroke:#7A003C;stroke-width:0.5;stroke-dasharray:5.0,5.0;" x1="576" x2="576" y1="203.5195" y2="614.2363"/><line style="stroke:#7A003C;stroke-width:0.5;stroke-dasharray:5.0,5.0;" x1="717" x2="717" y1="283.3184" y2="614.2363"/><rect fill="#FEECCD" height="30.4883" rx="5" ry="5" style="stroke:#7A003C;stroke-width:0.5;" width="62" x="59" y="5"/><text fill="#000000" font-family="sans-serif" font-size="14" lengthAdjust="spacing" textLength="48" x="66" y="25.5352">_: Main</text><rect fill="#FEECCD" height="528.4375" style="stroke:#7A003C;stroke-width:1.0;" width="10" x="85" y="67.7988"/><rect fill="#FEECCD" height="213.9531" style="stroke:#7A003C;stroke-width:1.0;" width="10" x="320" y="107.1094"/><rect fill="#FEECCD" height="231.8633" style="stroke:#7A003C;stroke-width:1.0;" width="10" x="320" y="350.373"/><rect fill="#FEECCD" height="68.3105" style="stroke:#7A003C;stroke-width:1.0;" width="10" x="325" y="411.9941"/><rect fill="#FEECCD" height="16.1777" style="stroke:#7A003C;stroke-width:1.0;" width="10" x="480.5" y="148.5977"/><rect fill="#FEECCD" height="16.1777" style="stroke:#7A003C;stroke-width:1.0;" width="10" x="571.5" y="204.0859"/><rect fill="#FEECCD" height="16.1777" style="stroke:#7A003C;stroke-width:1.0;" width="10" x="712" y="283.8848"/><rect fill="#FEECCD" height="14" style="stroke:#7A003C;stroke-width:1.0;" width="10" x="712" y="446.3047"/><rect fill="#FEECCD" height="29.3105" style="stroke:#7A003C;stroke-width:1.0;" width="10" x="712" y="523.6152"/><polygon fill="#7A003C" points="73,63.7988,83,67.7988,73,71.7988,77,67.7988" style="stroke:#7A003C;stroke-width:1.0;"/><line style="stroke:#7A003C;stroke-width:1.0;" x1="0" x2="79" y1="67.7988" y2="67.7988"/><text fill="#000000" font-family="sans-serif" font-size="13" lengthAdjust="spacing" textLength="66" x="7" y="63.0566">main(args)</text><polygon fill="#7A003C" points="250,93.1094,260,97.1094,250,101.1094,254,97.1094" style="stroke:#7A003C;stroke-width:1.0;"/><line style="stroke:#7A003C;stroke-width:1.0;" x1="95" x2="256" y1="97.1094" y2="97.1094"/><text fill="#000000" font-family="sans-serif" font-size="13" lengthAdjust="spacing" textLength="143" x="102" y="92.3672">this(str1, str2, system)</text><rect fill="#FEECCD" height="30.4883" rx="5" ry="5" style="stroke:#7A003C;stroke-width:0.5;" width="126" x="262" y="75.7988"/><text fill="#000000" font-family="sans-serif" font-size="14" lengthAdjust="spacing" textLength="112" x="269" y="96.334">theMatch: Match</text><polygon fill="#7A003C" points="433,134.5977,443,138.5977,433,142.5977,437,138.5977" style="stroke:#7A003C;stroke-width:1.0;"/><line style="stroke:#7A003C;stroke-width:1.0;" x1="330" x2="439" y1="138.5977" y2="138.5977"/><text fill="#000000" font-family="sans-serif" font-size="13" lengthAdjust="spacing" textLength="91" x="337" y="133.8555">this("p1", str1)</text><rect fill="#FEECCD" height="30.4883" rx="5" ry="5" style="stroke:#7A003C;stroke-width:0.5;" width="81" x="445" y="117.2871"/><text fill="#000000" font-family="sans-serif" font-size="14" lengthAdjust="spacing" textLength="67" x="452" y="137.8223">p1: Player</text><polygon fill="#7A003C" points="341,160.7754,331,164.7754,341,168.7754,337,164.7754" style="stroke:#7A003C;stroke-width:1.0;"/><line style="stroke:#7A003C;stroke-width:1.0;stroke-dasharray:2.0,2.0;" x1="335" x2="484.5" y1="164.7754" y2="164.7754"/><polygon fill="#7A003C" points="524,190.0859,534,194.0859,524,198.0859,528,194.0859" style="stroke:#7A003C;stroke-width:1.0;"/><line style="stroke:#7A003C;stroke-width:1.0;" x1="330" x2="530" y1="194.0859" y2="194.0859"/><text fill="#000000" font-family="sans-serif" font-size="13" lengthAdjust="spacing" textLength="91" x="337" y="189.3438">this("p2", str2)</text><rect fill="#FEECCD" height="30.4883" rx="5" ry="5" style="stroke:#7A003C;stroke-width:0.5;" width="81" x="536" y="172.7754"/><text fill="#000000" font-family="sans-serif" font-size="14" lengthAdjust="spacing" textLength="67" x="543" y="193.3105">p2: Player</text><polygon fill="#7A003C" points="341,216.2637,331,220.2637,341,224.2637,337,220.2637" style="stroke:#7A003C;stroke-width:1.0;"/><line style="stroke:#7A003C;stroke-width:1.0;stroke-dasharray:2.0,2.0;" x1="335" x2="575.5" y1="220.2637" y2="220.2637"/><path d="M257,235.2637 L314,235.2637 L314,242.5742 L304,252.5742 L252,252.5742 L252,240.2637 A5,5 0 0 1 257,235.2637 " fill="#EEEEEE" style="stroke:#000000;stroke-width:1.5;"/><rect fill="none" height="72.7988" rx="5" ry="5" style="stroke:#000000;stroke-width:1.5;" width="565" x="252" y="235.2637"/><text fill="#000000" font-family="sans-serif" font-size="13" font-weight="bold" lengthAdjust="spacing" textLength="17" x="267" y="248.832">alt</text><text fill="#000000" font-family="sans-serif" font-size="11" font-weight="bold" lengthAdjust="spacing" textLength="47" x="329" y="247.8984">[system]</text><polygon fill="#7A003C" points="615,269.8848,625,273.8848,615,277.8848,619,273.8848" style="stroke:#7A003C;stroke-width:1.0;"/><line style="stroke:#7A003C;stroke-width:1.0;" x1="330" x2="621" y1="273.8848" y2="273.8848"/><text fill="#000000" font-family="sans-serif" font-size="13" lengthAdjust="spacing" textLength="72" x="337" y="269.1426">this(p1, p2)</text><rect fill="#FEECCD" height="30.4883" rx="5" ry="5" style="stroke:#7A003C;stroke-width:0.5;" width="180" x="627" y="252.5742"/><text fill="#000000" font-family="sans-serif" font-size="14" lengthAdjust="spacing" textLength="166" x="634" y="273.1094">scorer: ? &lt;: ScoreSystem</text><polygon fill="#7A003C" points="341,296.0625,331,300.0625,341,304.0625,337,300.0625" style="stroke:#7A003C;stroke-width:1.0;"/><line style="stroke:#7A003C;stroke-width:1.0;stroke-dasharray:2.0,2.0;" x1="335" x2="716" y1="300.0625" y2="300.0625"/><polygon fill="#7A003C" points="106,317.0625,96,321.0625,106,325.0625,102,321.0625" style="stroke:#7A003C;stroke-width:1.0;"/><line style="stroke:#7A003C;stroke-width:1.0;stroke-dasharray:2.0,2.0;" x1="100" x2="324" y1="321.0625" y2="321.0625"/><polygon fill="#7A003C" points="308,346.373,318,350.373,308,354.373,312,350.373" style="stroke:#7A003C;stroke-width:1.0;"/><line style="stroke:#7A003C;stroke-width:1.0;" x1="95" x2="314" y1="350.373" y2="350.373"/><text fill="#000000" font-family="sans-serif" font-size="13" lengthAdjust="spacing" textLength="34" x="102" y="345.6309">play()</text><path d="M257,365.373 L326,365.373 L326,372.6836 L316,382.6836 L252,382.6836 L252,370.373 A5,5 0 0 1 257,365.373 " fill="#EEEEEE" style="stroke:#000000;stroke-width:1.5;"/><rect fill="none" height="129.9316" rx="5" ry="5" style="stroke:#000000;stroke-width:1.5;" width="565" x="252" y="365.373"/><text fill="#000000" font-family="sans-serif" font-size="13" font-weight="bold" lengthAdjust="spacing" textLength="29" x="267" y="378.9414">loop</text><text fill="#000000" font-family="sans-serif" font-size="11" font-weight="bold" lengthAdjust="spacing" textLength="98" x="341" y="378.0078">[!scorer.isEnded?]</text><line style="stroke:#7A003C;stroke-width:1.0;" x1="330" x2="377" y1="398.9941" y2="398.9941"/><line style="stroke:#7A003C;stroke-width:1.0;" x1="377" x2="377" y1="398.9941" y2="411.9941"/><line style="stroke:#7A003C;stroke-width:1.0;" x1="336" x2="377" y1="411.9941" y2="411.9941"/><polygon fill="#7A003C" points="346,407.9941,336,411.9941,346,415.9941,342,411.9941" style="stroke:#7A003C;stroke-width:1.0;"/><text fill="#000000" font-family="sans-serif" font-size="13" lengthAdjust="spacing" textLength="69" x="342" y="394.252">playGame()</text><polygon fill="#7A003C" points="700,442.3047,710,446.3047,700,450.3047,704,446.3047" style="stroke:#7A003C;stroke-width:1.0;"/><line style="stroke:#7A003C;stroke-width:1.0;" x1="335" x2="706" y1="446.3047" y2="446.3047"/><text fill="#000000" font-family="sans-serif" font-size="13" lengthAdjust="spacing" textLength="92" x="342" y="441.5625">score(p1 || p2)</text><polygon fill="#7A003C" points="346,456.3047,336,460.3047,346,464.3047,342,460.3047" style="stroke:#7A003C;stroke-width:1.0;"/><line style="stroke:#7A003C;stroke-width:1.0;stroke-dasharray:2.0,2.0;" x1="340" x2="716" y1="460.3047" y2="460.3047"/><line style="stroke:#7A003C;stroke-width:1.0;stroke-dasharray:2.0,2.0;" x1="335" x2="377" y1="479.3047" y2="479.3047"/><line style="stroke:#7A003C;stroke-width:1.0;stroke-dasharray:2.0,2.0;" x1="377" x2="377" y1="479.3047" y2="492.3047"/><line style="stroke:#7A003C;stroke-width:1.0;stroke-dasharray:2.0,2.0;" x1="330" x2="377" y1="492.3047" y2="492.3047"/><polygon fill="#7A003C" points="340,488.3047,330,492.3047,340,496.3047,336,492.3047" style="stroke:#7A003C;stroke-width:1.0;"/><polygon fill="#7A003C" points="700,519.6152,710,523.6152,700,527.6152,704,523.6152" style="stroke:#7A003C;stroke-width:1.0;"/><line style="stroke:#7A003C;stroke-width:1.0;" x1="330" x2="706" y1="523.6152" y2="523.6152"/><text fill="#000000" font-family="sans-serif" font-size="13" lengthAdjust="spacing" textLength="50" x="337" y="518.873">winner()</text><polygon fill="#7A003C" points="341,548.9258,331,552.9258,341,556.9258,337,552.9258" style="stroke:#7A003C;stroke-width:1.0;"/><line style="stroke:#7A003C;stroke-width:1.0;stroke-dasharray:2.0,2.0;" x1="335" x2="716" y1="552.9258" y2="552.9258"/><text fill="#000000" font-family="sans-serif" font-size="13" lengthAdjust="spacing" textLength="10" x="347" y="548.1836">w</text><polygon fill="#7A003C" points="106,578.2363,96,582.2363,106,586.2363,102,582.2363" style="stroke:#7A003C;stroke-width:1.0;"/><line style="stroke:#7A003C;stroke-width:1.0;stroke-dasharray:2.0,2.0;" x1="100" x2="324" y1="582.2363" y2="582.2363"/><text fill="#000000" font-family="sans-serif" font-size="13" lengthAdjust="spacing" textLength="10" x="112" y="577.4941">w</text><polygon fill="#7A003C" points="11,592.2363,1,596.2363,11,600.2363,7,596.2363" style="stroke:#7A003C;stroke-width:1.0;"/><line style="stroke:#7A003C;stroke-width:1.0;stroke-dasharray:2.0,2.0;" x1="5" x2="89" y1="596.2363" y2="596.2363"/><!--SRC=[VP71QiCm38RlVWerfmIsZFWOndeQEnK2FUumZ2DMG-8OMrafzE7dEAQBqwmwE7RqwzDlUQUqxCOMeNmnOz-LZYuTCYP66eGazIC8OT2C6M59IMM49iY-QZW8fJCGBcpIB9tm84YU9f7_H9NVfJ9JrT1que8sA9fgbUPfcgTf9mUBjeOzlDPmd0x7YoFiWpYSBMEVps_1NmszNtDXlrt1m8UqE5riTWKn9YM4Yc2UJihbZcpr17xbVWqDYfi-GhnnM4IedZ1D5Hd-fbbWL4MYj4YZrNSu_W-Ett1ynl67ED5HT9oeOfSu8LZ5hTinZZTqD7u4PjLjeoFgbYr-iusP6l-W-H-e6mO3k_afI-NUTOljdcqxMX0-H8zvmHux3rHl7QxNU_Chvuzkima_AwtHBZpCnN1coM7U_080]--></g></svg>